<svg width="512" height="512" viewBox="0 0 512 512" fill="none" xmlns="http://www.w3.org/2000/svg">
<rect width="512" height="512" rx="16" fill="#263238"/>
<rect x="8" y="8" width="496" height="496" rx="8" fill="#43A047"/>
<rect x="64" y="256" width="384" height="192" rx="8" fill="#263238"/>
<rect x="72" y="264" width="368" height="176" rx="4" fill="#4A2020"/>
<path d="M72 392H440V436C440 438.209 438.209 440 436 440H76C73.7909 440 72 438.209 72 436V392Z" fill="#FFF9C3"/>
<path d="M72 268C72 265.791 73.7909 264 76 264H436C438.209 264 440 265.791 440 268V312H72V268Z" fill="#FFF9C3"/>
<rect x="320" y="64" width="128" height="128" rx="8" fill="#263238"/>
<rect x="328" y="72" width="112" height="112" rx="4" fill="#FFF9C3"/>
<rect x="384" y="128" width="32" height="32" rx="4" fill="#263238"/>
<rect x="64" y="64" width="128" height="128" rx="8" fill="#263238"/>
<rect x="72" y="72" width="112" height="112" rx="4" fill="#FFF9C3"/>
<rect x="96" y="96" width="32" height="32" rx="4" fill="#263238"/>
</svg>
